<svg xmlns="http://www.w3.org/2000/svg" width="155" height="48"><defs><path id="a" d="M14.685 23.92V.457H.725v23.465h13.96z"/></defs><g style="fill:none;fill-rule:evenodd;stroke:none;stroke-width:1"><path style="fill:#0061ad" d="M51.87 12.294h-4.526l-7.778 9.944v-9.944h-4.038v22.801h4.038V24.62l7.742 10.476h5.353l-9.34-11.778 9.02-11.023h-.47zM61.656 15.556c2.97 0 4.294 1.014 4.294 3.288 0 2.15-1.696 3.486-4.426 3.486L60 22.272v-6.657l1.657-.059m-5.486-3.261-.208.012v22.789h4.037v-9.432l6.751 9.432h5.078l-6.138-8.141-1.242-1.58-.41-.517c3.72-.554 6.115-3.025 6.115-6.412 0-4.17-2.693-6.284-8.002-6.284-2.677 0-4.465.04-5.98.133M77.985 23.513c0-5.473 3.166-7.924 6.305-7.924 4.066 0 6.305 2.909 6.305 8.189 0 5.49-3.303 7.99-6.371 7.99-4.024 0-6.239-2.932-6.239-8.255m-4.269.43c0 7.405 3.639 11.485 10.244 11.485 6.42 0 10.903-4.942 10.903-12.014 0-7.277-3.734-11.451-10.243-11.451-6.42 0-10.904 4.927-10.904 11.98M117.479 12.294h-3.717v6.848c0 2.973.08 7 .184 9.614-.705-1.388-1.432-2.806-2.242-4.165l-7.418-12.297h-5.062v22.801h3.94v-7.74c0-2.815-.05-6.475-.146-8.83a41.92 41.92 0 0 0 2.009 3.747l7.679 12.823h4.996V12.294h-.223zM128.08 25.061h7.746v-3.395h-7.747v-5.911h8.142v-3.461H124.04v22.801h12.181v-3.527h-8.142z"/><path d="M.725 7.204c0 4.148 3.071 5.36 5.779 6.43 2.117.835 3.946 1.557 3.946 3.506 0 2.907-2.934 3.22-4.195 3.22-1.441 0-3.18-.31-4.538-.814l-.281-.104-.227 3.896.178.045c1.345.347 2.957.538 4.538.538 5.24 0 8.76-2.938 8.76-7.312 0-4.032-3.086-5.281-5.808-6.382-2.102-.85-3.916-1.584-3.916-3.42 0-1.83 1.481-2.923 3.964-2.923 1.26 0 2.665.22 3.957.62l.27.083.227-3.696-.197-.034c-1.595-.273-2.885-.4-4.058-.4C4.022.456.725 3.104.725 7.203" style="fill:#0061ad" transform="translate(139.657 11.507)"/><path style="fill:#0061ad" d="m2.303 11.527-2.248 1.54a.125.125 0 0 0-.053.082.129.129 0 0 0 .02.095C3.352 18.04 5.11 23.696 5.11 29.597c0 5.876-1.758 11.521-5.086 16.326a.13.13 0 0 0-.02.094.125.125 0 0 0 .052.081l2.247 1.57a.125.125 0 0 0 .184-.048l8.85-17.966a.126.126 0 0 0 0-.113l-8.85-17.966a.123.123 0 0 0-.08-.065.121.121 0 0 0-.104.017M21.87.001a.128.128 0 0 0-.088.056l-10.963 16.75a.125.125 0 0 0-.014.11l6.603 18.916a.123.123 0 0 0 .073.076.125.125 0 0 0 .105-.005l2.42-1.283a.122.122 0 0 0 .062-.074.126.126 0 0 0-.009-.097 28.563 28.563 0 0 1-3.067-16.825c.716-5.859 3.148-11.257 7.034-15.61a.128.128 0 0 0 .032-.092.13.13 0 0 0-.043-.088L21.97.032a.127.127 0 0 0-.1-.031"/></g></svg>